# Blender v2.75 (sub 0) OBJ File: 'coin.blend'
# www.blender.org
mtllib coin.mtl
o coin
v 0.013957 0.272707 -0.277841
v -0.013957 0.272707 -0.277841
v 0.013957 0.218502 -0.272503
v -0.013957 0.218502 -0.272503
v 0.013957 0.166381 -0.256692
v -0.013957 0.166381 -0.256692
v 0.013957 0.118346 -0.231017
v -0.013957 0.118346 -0.231017
v 0.013957 0.076243 -0.196463
v -0.013957 0.076243 -0.196463
v 0.013957 0.041690 -0.154360
v -0.013957 0.041690 -0.154360
v 0.013957 0.016015 -0.106325
v -0.013957 0.016015 -0.106325
v 0.013957 0.000204 -0.054204
v -0.013957 0.000204 -0.054204
v 0.013957 -0.005135 -0.000000
v -0.013957 -0.005135 -0.000000
v 0.013957 0.000204 0.054204
v -0.013957 0.000204 0.054204
v 0.013957 0.016015 0.106325
v -0.013957 0.016015 0.106325
v 0.013957 0.041690 0.154360
v -0.013957 0.041690 0.154360
v 0.013957 0.076243 0.196463
v -0.013957 0.076243 0.196463
v 0.013957 0.118346 0.231017
v -0.013957 0.118346 0.231017
v 0.013957 0.166381 0.256692
v -0.013957 0.166381 0.256692
v 0.013957 0.218502 0.272503
v -0.013957 0.218502 0.272503
v 0.013957 0.272707 0.277841
v -0.013957 0.272707 0.277841
v 0.013957 0.326911 0.272503
v -0.013957 0.326911 0.272503
v 0.013957 0.379032 0.256692
v -0.013957 0.379032 0.256692
v 0.013957 0.427067 0.231017
v -0.013957 0.427067 0.231017
v 0.013957 0.469170 0.196463
v -0.013957 0.469170 0.196463
v 0.013957 0.503723 0.154360
v -0.013957 0.503723 0.154360
v 0.013957 0.529399 0.106325
v -0.013957 0.529399 0.106325
v 0.013957 0.545209 0.054204
v -0.013957 0.545209 0.054204
v 0.013957 0.550548 -0.000000
v -0.013957 0.550548 -0.000000
v 0.013957 0.545209 -0.054204
v -0.013957 0.545209 -0.054204
v 0.013957 0.529398 -0.106326
v -0.013957 0.529398 -0.106326
v 0.013957 0.503723 -0.154361
v -0.013957 0.503723 -0.154361
v 0.013957 0.469170 -0.196464
v -0.013957 0.469170 -0.196464
v 0.013957 0.427067 -0.231017
v -0.013957 0.427067 -0.231017
v 0.013957 0.379031 -0.256692
v -0.013957 0.379031 -0.256692
v 0.013957 0.326910 -0.272503
v -0.013957 0.326910 -0.272503
vt 0.970431 0.493100
vt 0.970431 0.529572
vt 0.973988 0.529572
vt 0.973988 0.493100
vt 0.977409 0.529572
vt 0.977409 0.493100
vt 0.980562 0.529572
vt 0.980562 0.493100
vt 0.983326 0.529572
vt 0.983326 0.493100
vt 0.966873 0.529572
vt 0.966873 0.493100
vt 0.963452 0.529572
vt 0.963452 0.493100
vt 0.960299 0.529572
vt 0.960299 0.493100
vt 0.957536 0.529572
vt 0.957536 0.493100
vt 0.987594 0.451978
vt 0.987594 0.548025
vt 0.968856 0.642226
vt 0.932100 0.730963
vt 0.878739 0.810822
vt 0.810823 0.878739
vt 0.730962 0.932100
vt 0.642224 0.968856
vt 0.548023 0.987594
vt 0.451975 0.987594
vt 0.357774 0.968856
vt 0.269038 0.932100
vt 0.189177 0.878739
vt 0.121261 0.810823
vt 0.067899 0.730961
vt 0.031144 0.642225
vt 0.012406 0.548023
vt 0.012406 0.451975
vt 0.031144 0.357774
vt 0.067900 0.269038
vt 0.121261 0.189176
vt 0.189177 0.121261
vt 0.269037 0.067900
vt 0.357774 0.031144
vt 0.451976 0.012406
vt 0.548023 0.012406
vt 0.642225 0.031144
vt 0.730962 0.067900
vt 0.810823 0.121262
vt 0.878739 0.189178
vt 0.932101 0.269039
vt 0.968856 0.357775
vt 0.020593 0.452784
vt 0.039016 0.360164
vt 0.075155 0.272916
vt 0.127620 0.194396
vt 0.194395 0.127621
vt 0.272914 0.075155
vt 0.360161 0.039016
vt 0.452782 0.020592
vt 0.547217 0.020592
vt 0.639838 0.039015
vt 0.727085 0.075153
vt 0.805604 0.127619
vt 0.872380 0.194395
vt 0.924845 0.272914
vt 0.960984 0.360159
vt 0.979407 0.452780
vt 0.979407 0.547216
vt 0.960983 0.639837
vt 0.924844 0.727085
vt 0.872378 0.805605
vt 0.805603 0.872380
vt 0.727082 0.924845
vt 0.639835 0.960984
vt 0.547214 0.979407
vt 0.452780 0.979407
vt 0.360160 0.960983
vt 0.272914 0.924844
vt 0.194396 0.872380
vt 0.127621 0.805605
vt 0.075156 0.727085
vt 0.039017 0.639839
vt 0.020593 0.547219
vn -0.685700 0.000000 0.727900
vn 0.685700 0.000000 0.727900
vn 0.685700 0.142000 0.713900
vn -0.685700 0.142000 0.713900
vn 0.685700 0.278500 0.672500
vn -0.685700 0.278500 0.672500
vn 0.685700 0.404400 0.605200
vn -0.685700 0.404400 0.605200
vn 0.685700 0.514700 0.514700
vn -0.685700 0.514700 0.514700
vn 0.685700 0.605200 0.404400
vn -0.685700 0.605200 0.404400
vn 0.685700 0.672500 0.278500
vn -0.685700 0.672500 0.278500
vn 0.685700 0.713900 0.142000
vn -0.685700 0.713900 0.142000
vn 0.685700 0.727900 0.000000
vn -0.685700 0.727900 0.000000
vn 0.685700 0.713900 -0.142000
vn -0.685700 0.713900 -0.142000
vn 0.685700 0.672500 -0.278500
vn -0.685700 0.672500 -0.278500
vn 0.685700 0.605200 -0.404400
vn -0.685700 0.605200 -0.404400
vn 0.685700 0.514700 -0.514700
vn -0.685700 0.514700 -0.514700
vn 0.685700 0.404400 -0.605200
vn -0.685700 0.404400 -0.605200
vn 0.685700 0.278500 -0.672500
vn -0.685700 0.278500 -0.672500
vn 0.685700 0.142000 -0.713900
vn -0.685700 0.142000 -0.713900
vn 0.685700 0.000000 -0.727900
vn -0.685700 0.000000 -0.727900
vn 0.685700 -0.142000 -0.713900
vn -0.685700 -0.142000 -0.713900
vn 0.685700 -0.278500 -0.672500
vn -0.685700 -0.278500 -0.672500
vn 0.685700 -0.404400 -0.605200
vn -0.685700 -0.404400 -0.605200
vn 0.685700 -0.514700 -0.514700
vn -0.685700 -0.514700 -0.514700
vn 0.685700 -0.605200 -0.404400
vn -0.685700 -0.605200 -0.404400
vn 0.685700 -0.672500 -0.278500
vn -0.685700 -0.672500 -0.278500
vn 0.685700 -0.713900 -0.142000
vn -0.685700 -0.713900 -0.142000
vn 0.685700 -0.727900 0.000000
vn -0.685700 -0.727900 0.000000
vn 0.685700 -0.713900 0.142000
vn -0.685700 -0.713900 0.142000
vn 0.685700 -0.672500 0.278500
vn -0.685700 -0.672500 0.278500
vn 0.685700 -0.605200 0.404400
vn -0.685700 -0.605200 0.404400
vn 0.685700 -0.514700 0.514700
vn -0.685700 -0.514700 0.514700
vn 0.685700 -0.404400 0.605200
vn -0.685700 -0.404400 0.605200
vn 0.685700 -0.278500 0.672500
vn -0.685700 -0.278500 0.672500
vn 0.685700 -0.142000 0.713900
vn -0.685700 -0.142000 0.713900
usemtl coin
s 1
f 1/1/1 2/2/2 4/3/3 3/4/4
f 3/4/4 4/3/3 6/5/5 5/6/6
f 5/6/6 6/5/5 8/7/7 7/8/8
f 7/8/8 8/7/7 10/9/9 9/10/10
f 9/10/10 10/9/9 12/7/11 11/8/12
f 11/8/12 12/7/11 14/5/13 13/6/14
f 13/6/14 14/5/13 16/3/15 15/4/16
f 15/4/16 16/3/15 18/2/17 17/1/18
f 17/1/18 18/2/17 20/11/19 19/12/20
f 19/12/20 20/11/19 22/13/21 21/14/22
f 21/14/22 22/13/21 24/15/23 23/16/24
f 23/16/24 24/15/23 26/17/25 25/18/26
f 25/10/26 26/9/25 28/7/27 27/8/28
f 27/8/28 28/7/27 30/5/29 29/6/30
f 29/6/30 30/5/29 32/3/31 31/4/32
f 31/4/32 32/3/31 34/2/33 33/1/34
f 33/1/34 34/2/33 36/11/35 35/12/36
f 35/12/36 36/11/35 38/13/37 37/14/38
f 37/14/38 38/13/37 40/15/39 39/16/40
f 39/16/40 40/15/39 42/17/41 41/18/42
f 41/18/42 42/17/41 44/15/43 43/16/44
f 43/16/44 44/15/43 46/13/45 45/14/46
f 45/14/46 46/13/45 48/11/47 47/12/48
f 47/12/48 48/11/47 50/2/49 49/1/50
f 49/1/50 50/2/49 52/3/51 51/4/52
f 51/4/52 52/3/51 54/5/53 53/6/54
f 53/6/54 54/5/53 56/7/55 55/8/56
f 55/8/56 56/7/55 58/9/57 57/10/58
f 57/18/58 58/17/57 60/15/59 59/16/60
f 59/16/60 60/15/59 62/13/61 61/14/62
f 4/19/3 2/20/2 64/21/63 62/22/61 60/23/59 58/24/57 56/25/55 54/26/53 52/27/51 50/28/49 48/29/47 46/30/45 44/31/43 42/32/41 40/33/39 38/34/37 36/35/35 34/36/33 32/37/31 30/38/29 28/39/27 26/40/25 24/41/23 22/42/21 20/43/19 18/44/17 16/45/15 14/46/13 12/47/11 10/48/9 8/49/7 6/50/5
f 63/12/64 64/11/63 2/2/2 1/1/1
f 61/14/62 62/13/61 64/11/63 63/12/64
f 1/51/1 3/52/4 5/53/6 7/54/8 9/55/10 11/56/12 13/57/14 15/58/16 17/59/18 19/60/20 21/61/22 23/62/24 25/63/26 27/64/28 29/65/30 31/66/32 33/67/34 35/68/36 37/69/38 39/70/40 41/71/42 43/72/44 45/73/46 47/74/48 49/75/50 51/76/52 53/77/54 55/78/56 57/79/58 59/80/60 61/81/62 63/82/64
